<?xml version="1.0" encoding="UTF-8"?>
<svg version="1.1" xmlns="http://www.w3.org/2000/svg" width="495" height="514">
<path d="M0 0 C1.17838511 -0.00199105 2.35677022 -0.0039821 3.57086396 -0.00603348 C5.51442485 -0.00166422 5.51442485 -0.00166422 7.4972496 0.00279331 C8.88663495 0.00235733 10.27602021 0.00148192 11.66540504 0.00020415 C15.48730692 -0.00203549 19.30918087 0.00197325 23.1310792 0.00698221 C27.25102011 0.01129411 31.37095941 0.00983976 35.49090195 0.00907993 C42.63031259 0.00855517 49.76971412 0.01169702 56.90912247 0.01731777 C67.23155319 0.02543918 77.5539795 0.02804865 87.87641308 0.02930576 C104.62321705 0.03149527 121.37001615 0.03815262 138.11681747 0.04760838 C154.38634848 0.0567851 170.65587816 0.06386466 186.92541122 0.06811619 C187.92799084 0.06837891 188.93057046 0.06864164 189.96353129 0.06891232 C194.99309668 0.07021734 200.02266209 0.07148105 205.0522275 0.07272422 C246.7882791 0.08309369 288.52432535 0.10070926 330.26037216 0.12304783 C330.26037216 0.78304783 330.26037216 1.44304783 330.26037216 2.12304783 C329.46606796 2.39230076 328.67176376 2.66155369 327.85338974 2.9389658 C244.04906811 31.52439742 151.23682623 67.18774242 78.70177841 131.86914158 C76.61985987 133.79116877 74.49611319 135.61930738 72.32287216 137.43554783 C45.16189537 161.15280159 25.23744004 195.11214805 22.42052841 231.32226658 C21.33333158 250.33495266 23.35027477 270.18681845 36.26037216 285.12304783 C46.372626 295.80023204 58.87065095 300.96105108 73.50378036 301.52783298 C111.30949888 302.07591978 147.13173752 281.37072759 180.07384872 265.25830173 C256.58135154 227.83775842 256.58135154 227.83775842 275.07287216 228.06054783 C276.04869247 228.06957127 277.02451279 228.0785947 278.02990341 228.08789158 C279.13398544 228.10529392 279.13398544 228.10529392 280.26037216 228.12304783 C285.87441801 250.39958176 281.49365933 273.31534069 270.1422081 293.06884861 C258.44510363 312.38029006 242.13496709 329.45282671 224.26037216 343.12304783 C223.69834091 343.56149021 223.13630966 343.99993259 222.55724716 344.45166111 C198.32250081 363.34621896 171.6361378 378.30543246 144.26037216 392.12304783 C143.24829697 392.63448338 142.23622177 393.14591892 141.19347763 393.67285252 C78.50045957 425.12223335 10.48059244 446.76529262 -56.98962784 465.37304783 C-57.86768082 465.61596561 -58.7457338 465.8588834 -59.65039444 466.10916233 C-62.12149567 466.79073583 -64.59418187 467.46612424 -67.06775284 468.13867283 C-67.80332413 468.34115131 -68.53889542 468.5436298 -69.29675674 468.752244 C-72.20461882 469.53474521 -74.71297469 470.12304783 -77.73962784 470.12304783 C-85.02824484 453.17524421 -85.42120711 436.90785953 -83.09900284 418.79126072 C-82.90246272 417.16966272 -82.70725852 415.54790237 -82.51323318 413.92600155 C-82.08479867 410.36820268 -81.64723592 406.81168503 -81.20273209 403.25585842 C-80.46029072 397.31482489 -79.7386037 391.37136373 -79.01916885 385.42750645 C-78.20150116 378.68161402 -77.38174663 371.93599115 -76.55531693 365.19116592 C-74.23284684 346.23556436 -71.95482474 327.27489796 -69.69257021 308.31202933 C-68.82153711 301.01090871 -67.94999888 293.70984835 -67.07849503 286.40878391 C-66.98050936 285.58782376 -66.88252369 284.76686362 -66.78156877 283.92102589 C-64.14383608 261.82284536 -61.48831376 239.72680323 -58.8323921 217.63080271 C-58.31037466 213.28781009 -57.78841506 208.94481052 -57.26648331 204.60180759 C-57.16281393 203.73921529 -57.05914456 202.87662298 -56.95233369 201.98789151 C-55.24642674 187.79249836 -53.54655697 173.59638819 -51.84879553 159.4000188 C-50.08115178 144.62028666 -48.30771481 129.84125831 -46.52873898 115.06288582 C-45.44297689 106.04178558 -44.3615488 97.020189 -43.28595752 87.99787033 C-42.55498024 81.87001135 -41.81832168 75.74285196 -41.07720453 69.61621111 C-40.65161828 66.09663946 -40.22846533 62.57682226 -39.81209373 59.05614758 C-39.36009701 55.23480622 -38.89609848 51.41497469 -38.43103409 47.59520054 C-38.23944922 45.9510057 -38.23944922 45.9510057 -38.04399395 44.2735948 C-36.1900018 29.27748335 -33.10054708 16.83646426 -21.11462784 6.81445408 C-14.62414658 2.19212121 -7.92037365 -0.00295096 0 0 Z " fill="#0D65D9" transform="translate(84.73962783813477,-0.1230478286743164)"/>
<path d="M0 0 C1.7237767 8.72589212 2.88375648 17.4881767 3.94888306 26.31509399 C4.13595624 27.84535372 4.32330713 29.37557952 4.51090944 30.90577447 C5.02243342 35.0850849 5.52987116 39.26488252 6.03656578 43.44478083 C6.5850255 47.96345177 7.13721941 52.48166674 7.68882751 56.99995422 C9.01852091 67.89899821 10.34180739 78.79881629 11.66410929 89.69875914 C12.16311464 93.81148002 12.6624937 97.92415548 13.16187347 102.03683091 C15.36646414 120.19337549 17.56899618 138.3501687 19.76607704 156.50762367 C20.30301664 160.94486341 20.83997034 165.38210143 21.37695312 169.81933594 C21.51039979 170.92205697 21.64384645 172.024778 21.78133695 173.16091482 C23.94071968 191.00186455 26.11252622 208.84127874 28.28951438 226.68008788 C30.52915273 245.03399866 32.75745193 263.38925877 34.97485769 281.74586904 C36.21820527 292.03646732 37.46638464 302.32642711 38.727314 312.61488724 C39.8016854 321.3813993 40.86567758 330.14909562 41.916667 338.91844286 C42.45195211 343.38221228 42.9917934 347.84529116 43.54502296 352.30687523 C51.62041426 417.53181574 51.62041426 417.53181574 31.125 444.375 C18.04209646 459.68909639 1.08544577 469.44022462 -19 472 C-23.99071 472.27290692 -28.97498045 472.27515864 -33.97151184 472.26069641 C-35.46420742 472.26372209 -36.95690145 472.26761364 -38.44959277 472.27228898 C-42.5251081 472.28252417 -46.60053502 472.28039865 -50.67605746 472.27610838 C-55.08177223 472.27363298 -59.48746617 472.28266543 -63.89317322 472.29014587 C-72.51443491 472.30287243 -81.13566542 472.30468911 -89.75693492 472.30234561 C-96.76742575 472.30055996 -103.77790714 472.30231739 -110.78839684 472.30657005 C-112.28711922 472.30746284 -112.28711922 472.30746284 -113.81611883 472.30837366 C-115.84613572 472.30958545 -117.87615261 472.31079959 -119.9061695 472.31201603 C-138.92895603 472.32288376 -157.95172483 472.32073275 -176.97451236 472.31463119 C-194.35933367 472.30946306 -211.74409893 472.32071611 -229.12890915 472.33972941 C-246.9993464 472.3591233 -264.86975715 472.36736106 -282.74020499 472.36360615 C-292.76517977 472.36169642 -302.79010685 472.36415942 -312.81507301 472.37832069 C-321.34977076 472.39025525 -329.88439146 472.39161616 -338.41909031 472.37953053 C-342.76919864 472.37365633 -347.11916617 472.37250183 -351.46926498 472.38453293 C-355.45977708 472.39544078 -359.45003164 472.39223068 -363.44053193 472.37827124 C-364.87583966 472.37563772 -366.31116789 472.37794805 -367.74645541 472.38600711 C-377.12383016 472.43496089 -385.99347427 471.77811345 -395 469 C-395.66 468.34 -396.32 467.68 -397 467 C-387.80638594 464.07542226 -378.61066159 461.16325758 -369.37109375 458.38671875 C-316.25168976 442.39115717 -264.21012722 423.96519301 -213.77294922 400.81256104 C-212.17196031 400.07881119 -210.56854377 399.3503639 -208.96484375 398.62255859 C-196.8383529 393.11518508 -185.15894361 386.88888331 -173.52734375 380.40625 C-171.26304728 379.14636325 -168.99255503 377.89886072 -166.71875 376.65625 C-144.92114477 364.67508724 -124.25443051 350.74453721 -105 335 C-104.43748535 334.54189941 -103.8749707 334.08379883 -103.29541016 333.61181641 C-89.65755241 322.43024994 -76.6178111 310.12369212 -66 296 C-65.40977051 295.22438721 -65.40977051 295.22438721 -64.80761719 294.43310547 C-41.05290077 263.04096074 -28.89278936 226.46297728 -33.49609375 186.91015625 C-35.89467059 170.5373407 -41.89594182 157.60474822 -54.54296875 146.7890625 C-67.92598861 137.0443517 -84.54340487 136.40528419 -100.43505859 138.28857422 C-105.73011225 139.1392999 -110.86050752 140.48383883 -116 142 C-116.80727539 142.23605957 -117.61455078 142.47211914 -118.44628906 142.71533203 C-149.41803164 151.98533835 -178.90245456 167.30775941 -207.68997192 181.8656311 C-267.65371227 212.18709938 -267.65371227 212.18709938 -291 211 C-295.97428318 193.89833222 -291.38632145 176.17096248 -283.23046875 160.890625 C-277.36965097 150.3950161 -269.24868688 141.64206688 -261 133 C-260.31035156 132.26910156 -259.62070312 131.53820312 -258.91015625 130.78515625 C-253.66484424 125.36821849 -247.90729776 120.67399224 -242 116 C-241.0925 115.26394531 -240.185 114.52789062 -239.25 113.76953125 C-214.31509363 93.97413351 -186.30983175 78.36822411 -158 64 C-156.91912109 63.44820068 -156.91912109 63.44820068 -155.81640625 62.88525391 C-151.93389379 60.9052104 -148.03605148 58.95955186 -144.12207031 57.04248047 C-142.64518527 56.31695135 -141.17074705 55.586429 -139.69824219 54.85205078 C-101.07089359 35.61517042 -60.37075334 20.3230925 -19.6875 6.0625 C-18.36374359 5.59792389 -18.36374359 5.59792389 -17.01324463 5.1239624 C-14.5350978 4.2565499 -12.05517576 3.39449407 -9.57421875 2.53515625 C-8.83349625 2.27659348 -8.09277374 2.0180307 -7.3296051 1.75163269 C-2.23374288 0 -2.23374288 0 0 0 Z " fill="#0D65D9" transform="translate(448,42)"/>
</svg>
